<?xml version="1.0" encoding="utf-8"?>
<!-- Generator: Adobe Illustrator 26.0.3, SVG Export Plug-In . SVG Version: 6.00 Build 0)  -->
<svg version="1.1" id="Capa_1" xmlns="http://www.w3.org/2000/svg" xmlns:xlink="http://www.w3.org/1999/xlink" x="0px" y="0px"
	 viewBox="0 0 32 32" style="enable-background:new 0 0 32 32;" xml:space="preserve">
<style type="text/css">
	.st0{fill:#595D67;}
</style>
<path class="st0" d="M27.3,4.7c-6.2-6.3-16.4-6.3-22.6,0c-6.3,6.2-6.3,16.4,0,22.6c6.2,6.3,16.4,6.3,22.6,0
	C33.6,21.1,33.6,10.9,27.3,4.7z M16,25.7c-0.8,0-1.5-0.7-1.5-1.5s0.7-1.5,1.5-1.5c0.8,0,1.5,0.7,1.5,1.5S16.9,25.7,16,25.7z
	 M18.5,16.5c-0.9,0.5-1,1.1-1,3c0,0.1,0,0.2,0,0.4c0,0.9-0.7,1.5-1.6,1.5l0,0c-0.9,0-1.6-0.7-1.5-1.6c0-0.1,0-0.2,0-0.3
	c0-1.9,0-4.2,2.5-5.6c2-1.2,2.2-1.9,2-2.9c-0.3-1.2-1.4-1.5-2.2-1.4c-0.3,0-1.7,0.3-1.7,1.7c0,0.9-0.7,1.6-1.6,1.6
	c-0.9,0-1.6-0.7-1.6-1.6c0-2.5,1.8-4.5,4.5-4.8s5,1.2,5.6,3.8C22.9,13.9,19.7,15.8,18.5,16.5z"/>
</svg>
