<?xml version="1.0" encoding="UTF-8" standalone="no"?>
<svg
   xmlns:dc="http://purl.org/dc/elements/1.1/"
   xmlns:cc="http://creativecommons.org/ns#"
   xmlns:rdf="http://www.w3.org/1999/02/22-rdf-syntax-ns#"
   xmlns:svg="http://www.w3.org/2000/svg"
   xmlns="http://www.w3.org/2000/svg"
   viewBox="0 0 31.668945 32"
   height="32"
   width="31.668945"
   xml:space="preserve"
   id="svg2"
   version="1.1"><metadata
     id="metadata8"><rdf:RDF><cc:Work
         rdf:about=""><dc:format>image/svg+xml</dc:format><dc:type
           rdf:resource="http://purl.org/dc/dcmitype/StillImage" /></cc:Work></rdf:RDF></metadata><defs
     id="defs6" /><g
     transform="matrix(1.3333333,0,0,-1.3333333,0,32)"
     id="g10"><g
       transform="translate(3.216431,3.198738)"
       id="g12"><path
         id="path14"
         style="fill:#212121;fill-opacity:1;fill-rule:evenodd;stroke:none"
         d="m 4.265405,0.051262 h 8.788119 c 0.313628,-0.021675 0.628394,0.019775 0.92605,0.121948 0.297655,0.102173 0.572277,0.263033 0.807944,0.473257 0.235666,0.210224 0.427688,0.46563 0.564932,0.751406 0.137245,0.285777 0.21698,0.59624 0.234585,0.913389 v 9.789972 h 0.989656 c 0.196853,0 0.385646,0.07902 0.524843,0.21967 0.139196,0.140651 0.217396,0.331419 0.217396,0.53033 0,0.198912 -0.0782,0.389677 -0.217396,0.53033 -0.139197,0.140653 -0.32799,0.21967 -0.524843,0.21967 h -1.665509 c -0.04134,0.0066 -0.08338,0.01003 -0.125765,0.01003 -0.04239,0 -0.08443,-0.0034 -0.125766,-0.01003 h -0.769283 c 0.01688,0.06513 0.02504,0.132413 0.02415,0.200028 v 1.49 c -0.03829,0.634122 -0.322832,1.227316 -0.791725,1.650549 -0.468893,0.423231 -1.084208,0.642263 -1.712097,0.609451 H 5.908226 C 5.285346,17.575975 4.677641,17.353296 4.215219,16.930897 3.752798,16.508497 3.472414,15.91995 3.434096,15.291262 v -1.49 c 0,-0.0682 0.00919,-0.135437 0.026883,-0.200028 H 0.74224 c -0.097472,0 -0.19399,-0.0194 -0.284043,-0.05709 -0.090053,-0.03769 -0.171877,-0.09294 -0.2408,-0.16258 C 0.148474,13.31192 0.093801,13.229241 0.0565,13.138247 0.019199,13.047253 0,12.949726 0,12.851234 c 0,-0.09849 0.019199,-0.196018 0.0565,-0.287013 0.037301,-0.09099 0.091974,-0.173673 0.160897,-0.243317 0.068923,-0.06964 0.150747,-0.124889 0.2408,-0.16258 0.090053,-0.03769 0.186571,-0.05709 0.284043,-0.05709 H 1.731893 V 2.311262 C 1.749498,1.994113 1.829234,1.68365 1.966478,1.397873 2.103723,1.112097 2.295744,0.856691 2.53141,0.646467 2.767076,0.436243 3.041698,0.275383 3.339354,0.17321 3.637009,0.071037 3.951776,0.029587 4.265405,0.051262 Z M 3.216372,12.101234 H 13.983796 V 2.311262 c 0,-0.41 -0.435447,-0.76 -0.989653,-0.76 H 4.206025 c -0.524516,0 -0.989653,0.35 -0.989653,0.76 z m 1.675321,1.5 c 0.017691,0.06459 0.026883,0.131831 0.026883,0.200028 v 1.49 c 0,0.41 0.445344,0.76 0.989653,0.76 h 5.532161 c 0.514619,0 0.989652,-0.35 0.989652,-0.76 v -1.49 c -9.1e-4,-0.06764 0.0074,-0.134932 0.02447,-0.200028 H 4.89169 Z M 6.897882,3.801277 C 6.701825,3.803867 6.514519,3.883717 6.375874,4.023811 6.237228,4.163906 6.158206,4.35317 6.155643,4.551277 v 4.529999 c 0,0.198913 0.078199,0.389678 0.217396,0.530331 0.139198,0.140651 0.32799,0.219669 0.524843,0.219669 0.196855,0 0.385646,-0.079018 0.524843,-0.219669 C 7.561922,9.470954 7.640122,9.280189 7.640122,9.081276 V 4.561277 C 7.641434,4.461947 7.623202,4.363344 7.586489,4.271193 7.549775,4.179041 7.495309,4.095178 7.426255,4.024471 7.357201,3.953765 7.274934,3.897623 7.18423,3.859308 7.093526,3.820993 6.996193,3.801269 6.897882,3.801277 Z m 2.998321,0.21967 c 0.139196,-0.140652 0.327988,-0.21967 0.524842,-0.21967 0.197759,0.00263 0.386536,0.08386 0.525456,0.226103 0.138919,0.142243 0.216801,0.334054 0.216784,0.533897 v 4.519999 c 0,0.198913 -0.0782,0.389678 -0.217396,0.530331 -0.139197,0.140651 -0.327989,0.219669 -0.524844,0.219669 -0.196854,0 -0.385646,-0.079018 -0.524842,-0.219669 C 9.757006,9.470954 9.678805,9.280189 9.678805,9.081276 V 4.551277 c 0,-0.198912 0.078201,-0.389678 0.217398,-0.53033 z" /></g></g></svg>