<?xml version="1.0" encoding="UTF-8" standalone="no"?>
<svg
   xmlns:dc="http://purl.org/dc/elements/1.1/"
   xmlns:cc="http://creativecommons.org/ns#"
   xmlns:rdf="http://www.w3.org/1999/02/22-rdf-syntax-ns#"
   xmlns:svg="http://www.w3.org/2000/svg"
   xmlns="http://www.w3.org/2000/svg"
   viewBox="0 0 31.668945 32"
   height="32"
   width="31.668945"
   xml:space="preserve"
   id="svg2"
   version="1.1"><metadata
     id="metadata8"><rdf:RDF><cc:Work
         rdf:about=""><dc:format>image/svg+xml</dc:format><dc:type
           rdf:resource="http://purl.org/dc/dcmitype/StillImage" /></cc:Work></rdf:RDF></metadata><defs
     id="defs6" /><g
     transform="matrix(1.3333333,0,0,-1.3333333,0,32)"
     id="g10"><g
       transform="translate(2.811279,3.243454)"
       id="g12"><path
         id="path14"
         style="fill:#212121;fill-opacity:1;fill-rule:nonzero;stroke:none"
         d="m 14.210838,0.006546 c -0.1211,1.91e-4 -0.240209,0.031139 -0.346379,0.09 L 9.064641,2.646544 4.264823,0.096546 C 4.142856,0.03038 4.005007,0 3.866851,0.008835 3.728694,0.01767 3.595736,0.065371 3.482998,0.146545 3.370439,0.229916 3.283055,0.343285 3.230621,0.473972 3.178188,0.60466 3.162773,0.747511 3.186101,0.886545 l 0.930274,5.4 -3.899233,3.82 c -0.097724,0.09884 -0.166182,0.223302 -0.197657,0.359351 -0.031474,0.136048 -0.024713,0.278275 0.01952,0.410649 0.041433,0.132866 0.119141,0.251215 0.224185,0.341436 0.105044,0.09022 0.233158,0.14865 0.369607,0.168564 l 5.363919,0.79 2.404857,4.910001 c 0.068446,0.116026 0.165538,0.212105 0.28177,0.278826 0.116232,0.06672 0.24762,0.101799 0.381298,0.101799 0.133678,0 0.265066,-0.03508 0.381298,-0.101799 0.116232,-0.06672 0.213324,-0.1628 0.28177,-0.278826 l 2.404857,-4.910001 5.363921,-0.79 c 0.136448,-0.01991 0.26456,-0.07834 0.369606,-0.168564 0.105043,-0.09022 0.182752,-0.20857 0.224186,-0.341436 0.04423,-0.132374 0.05099,-0.274601 0.01952,-0.410649 -0.03148,-0.136049 -0.09993,-0.260509 -0.197657,-0.359351 l -3.899234,-3.82 0.920378,-5.4 C 14.956613,0.747511 14.941196,0.60466 14.888763,0.473972 14.836329,0.343285 14.748946,0.229916 14.636387,0.146545 14.511068,0.058975 14.363158,0.010315 14.210838,0.006546 Z M 9.064641,4.236545 c 0.11978,-0.00144 0.237873,-0.028717 0.346379,-0.08 l 3.810165,-2 -0.722448,4.29 c -0.0196,0.12032 -0.01101,0.243608 0.02509,0.359966 0.03609,0.116358 0.09868,0.222544 0.182742,0.310034 l 3.087716,3 -4.265404,0.64 c -0.117959,0.01897 -0.229751,0.06605 -0.326125,0.137343 -0.09637,0.0713 -0.174558,0.164761 -0.228081,0.272657 l -1.91003,3.9 -1.910031,-3.91 C 7.101088,11.048649 7.022904,10.955185 6.92653,10.883887 6.830156,10.81259 6.718364,10.765511 6.600405,10.746545 l -4.265405,-0.63 3.087717,-3 C 5.506777,7.029055 5.569366,6.922869 5.605459,6.806511 5.641552,6.690153 5.650144,6.566865 5.630544,6.446545 l -0.722446,-4.319999 3.810164,2 C 8.82442,4.188253 8.942634,4.225793 9.064641,4.236545 Z" /></g></g></svg>