<?xml version="1.0" encoding="UTF-8" standalone="no"?>
<svg
   xmlns:dc="http://purl.org/dc/elements/1.1/"
   xmlns:cc="http://creativecommons.org/ns#"
   xmlns:rdf="http://www.w3.org/1999/02/22-rdf-syntax-ns#"
   xmlns:svg="http://www.w3.org/2000/svg"
   xmlns="http://www.w3.org/2000/svg"
   viewBox="0 0 24.172363 23.280832"
   height="23.280832"
   width="24.172363"
   xml:space="preserve"
   id="svg2"
   version="1.1"><metadata
     id="metadata8"><rdf:RDF><cc:Work
         rdf:about=""><dc:format>image/svg+xml</dc:format><dc:type
           rdf:resource="http://purl.org/dc/dcmitype/StillImage" /></cc:Work></rdf:RDF></metadata><defs
     id="defs6" /><g
     transform="matrix(1.3333333,0,0,-1.3333333,0,23.280833)"
     id="g10"><g
       transform="translate(0,-0.006546)"
       id="g12"><path
         id="path14"
         style="fill:#eab308;fill-opacity:1;fill-rule:nonzero;stroke:none"
         d="m 14.210838,0.006546 c -0.121099,1.91e-4 -0.240209,0.031139 -0.346379,0.09 L 9.064641,2.646544 4.264823,0.096546 C 4.142856,0.03038 4.005008,0 3.866851,0.008835 3.728694,0.01767 3.595736,0.065371 3.482998,0.146545 3.370439,0.229916 3.283055,0.343285 3.230621,0.473972 3.178188,0.60466 3.162773,0.747511 3.186101,0.886545 l 0.930274,5.4 -3.899233,3.82 c -0.097724,0.09884 -0.166182,0.223302 -0.197657,0.359351 -0.031474,0.136048 -0.024713,0.278275 0.01952,0.410649 0.041433,0.132866 0.119141,0.251215 0.224185,0.341436 0.105044,0.09022 0.233158,0.14865 0.369607,0.168564 l 5.363919,0.79 2.404857,4.910001 c 0.068446,0.116026 0.165538,0.212105 0.28177,0.278826 0.116232,0.06672 0.24762,0.101799 0.381298,0.101799 0.133678,0 0.265066,-0.03508 0.381298,-0.101799 0.116232,-0.06672 0.213324,-0.1628 0.28177,-0.278826 l 2.404857,-4.910001 5.363921,-0.79 c 0.136448,-0.01991 0.264562,-0.07834 0.369606,-0.168564 0.105043,-0.09022 0.182752,-0.20857 0.224186,-0.341436 0.04423,-0.132374 0.05099,-0.274601 0.01952,-0.410649 -0.03148,-0.136049 -0.09993,-0.260509 -0.197657,-0.359351 l -3.899234,-3.82 0.920378,-5.4 C 14.956612,0.747511 14.941196,0.60466 14.888763,0.473972 14.83633,0.343285 14.748946,0.229916 14.636387,0.146545 14.511068,0.058975 14.363159,0.010315 14.210838,0.006546 Z" /></g></g></svg>