<svg width="27" height="26" viewBox="0 0 27 26" fill="none" xmlns="http://www.w3.org/2000/svg">
<path d="M24.9597 10.074C24.8841 9.84457 24.7464 9.64305 24.5635 9.49388C24.3805 9.34471 24.1602 9.25429 23.9291 9.2336L17.1104 8.1925L14.0546 1.70758C13.9565 1.49551 13.8032 1.31666 13.6125 1.19152C13.4217 1.06637 13.2012 1 12.9761 1C12.7509 1 12.5304 1.06637 12.3396 1.19152C12.1489 1.31666 11.9957 1.49551 11.8975 1.70758L8.84168 8.17996L2.02296 9.2336C1.80117 9.2666 1.59266 9.36401 1.42108 9.51477C1.24951 9.66554 1.12174 9.86362 1.05228 10.0865C0.988705 10.3044 0.983 10.5363 1.03578 10.7572C1.08856 10.9782 1.19784 11.18 1.35188 11.3409L6.30114 16.3582L5.10277 23.4829C5.05439 23.7192 5.07228 23.9651 5.15428 24.1911C5.23629 24.4171 5.37892 24.6134 5.56502 24.7565C5.75112 24.8996 5.97275 24.9834 6.20327 24.9978C6.43378 25.0122 6.66336 24.9565 6.86437 24.8375L12.9761 21.4885L19.0877 24.8375C19.2559 24.9369 19.4459 24.9887 19.639 24.9881C19.8928 24.989 20.1404 24.9056 20.346 24.7497C20.5319 24.6103 20.6759 24.4182 20.7608 24.1959C20.8458 23.9736 20.8682 23.7306 20.8254 23.4954L19.627 16.3708L24.5763 11.3534C24.7493 11.2 24.8772 10.9983 24.945 10.7719C25.0129 10.5454 25.018 10.3034 24.9597 10.074ZM17.5898 15.0914C17.4511 15.2323 17.347 15.4064 17.2865 15.5986C17.226 15.7908 17.2108 15.9955 17.2422 16.1952L18.1051 21.4634L13.5992 18.9547C13.4241 18.864 13.2313 18.8169 13.036 18.8169C12.8406 18.8169 12.6479 18.864 12.4727 18.9547L7.96687 21.4634L8.8297 16.1952C8.86114 15.9955 8.84596 15.7908 8.78544 15.5986C8.72493 15.4064 8.62088 15.2323 8.48217 15.0914L4.88707 11.3283L9.9322 10.5632C10.1263 10.5349 10.3109 10.4573 10.4697 10.337C10.6285 10.2167 10.7566 10.0575 10.843 9.87331L12.9761 5.09429L15.229 9.88586C15.3153 10.07 15.4435 10.2292 15.6023 10.3495C15.7611 10.4698 15.9456 10.5475 16.1397 10.5757L21.1849 11.3409L17.5898 15.0914Z" fill="#E3DB21"/>
<path fill-rule="evenodd" clip-rule="evenodd" d="M14.5977 1.60607C14.5039 1.41148 14.3537 1.24668 14.165 1.13117C13.9763 1.01566 13.7569 0.954269 13.5328 0.954269C13.3088 0.954269 13.0894 1.01566 12.9007 1.13117C12.712 1.24668 12.5618 1.41148 12.4679 1.60607L9.10203 8.58369L1.12585 9.48898C0.903313 9.51412 0.692961 9.59971 0.51969 9.73562C0.346419 9.87154 0.217483 10.0521 0.148141 10.2559C0.0787989 10.4597 0.0719542 10.6783 0.128417 10.8857C0.184879 11.0931 0.302285 11.2807 0.46674 11.4263L6.3659 16.6427L4.80022 24.1812C4.75673 24.3914 4.77705 24.609 4.85879 24.8085C4.94053 25.0079 5.08026 25.1808 5.26146 25.3067C5.44266 25.4326 5.65776 25.5062 5.88133 25.5189C6.10489 25.5316 6.32757 25.4828 6.52305 25.3782L13.5328 21.6247L20.5426 25.3782C20.7382 25.4832 20.9612 25.5323 21.1851 25.5198C21.409 25.5073 21.6245 25.4336 21.8059 25.3075C21.9874 25.1814 22.1272 25.0082 22.2089 24.8083C22.2905 24.6085 22.3106 24.3905 22.2666 24.1801L20.701 16.6438L26.5989 11.4263C26.7634 11.2807 26.8808 11.0931 26.9373 10.8857C26.9937 10.6783 26.9869 10.4597 26.9175 10.2559C26.8482 10.0521 26.7193 9.87154 26.546 9.73562C26.3727 9.59971 26.1624 9.51412 25.9398 9.48898L17.9625 8.58257L14.5977 1.60607Z" fill="#FDC637"/>
</svg>
