<svg width="20" height="20" viewBox="0 0 20 20" fill="none" xmlns="http://www.w3.org/2000/svg">
<path d="M10 0C4.47917 0 0 4.47917 0 10C0 15.5208 4.47917 20 10 20C15.5208 20 20 15.5208 20 10C20 4.47917 15.5208 0 10 0ZM9.6875 15.8333C9.48148 15.8333 9.28008 15.7722 9.10878 15.6578C8.93748 15.5433 8.80397 15.3806 8.72513 15.1903C8.64628 15 8.62566 14.7905 8.66585 14.5884C8.70604 14.3864 8.80525 14.2008 8.95093 14.0551C9.09661 13.9094 9.28222 13.8102 9.48428 13.77C9.68634 13.7298 9.89579 13.7505 10.0861 13.8293C10.2765 13.9081 10.4392 14.0416 10.5536 14.2129C10.6681 14.3842 10.7292 14.5856 10.7292 14.7917C10.7292 15.0679 10.6194 15.3329 10.4241 15.5282C10.2287 15.7236 9.96377 15.8333 9.6875 15.8333ZM11.4292 10.5208C10.5849 11.0875 10.4688 11.6068 10.4688 12.0833C10.4688 12.2767 10.3919 12.4622 10.2552 12.5989C10.1184 12.7357 9.93297 12.8125 9.73958 12.8125C9.5462 12.8125 9.36073 12.7357 9.22398 12.5989C9.08724 12.4622 9.01042 12.2767 9.01042 12.0833C9.01042 10.9422 9.53542 10.0349 10.6156 9.30937C11.6198 8.63542 12.1875 8.20833 12.1875 7.26927C12.1875 6.63073 11.8229 6.14583 11.0682 5.78698C10.8906 5.7026 10.4953 5.62031 10.0089 5.62604C9.39844 5.63385 8.92448 5.77969 8.55937 6.07344C7.87083 6.6276 7.8125 7.23073 7.8125 7.23958C7.80318 7.43297 7.71741 7.61473 7.57407 7.74488C7.43073 7.87504 7.24156 7.94292 7.04818 7.93359C6.85479 7.92427 6.67303 7.8385 6.54288 7.69517C6.41272 7.55183 6.34484 7.36266 6.35417 7.16927C6.3599 7.04271 6.44792 5.9026 7.64427 4.9401C8.26458 4.44115 9.05365 4.18177 9.98802 4.17031C10.6495 4.1625 11.2708 4.27448 11.6922 4.47344C12.9531 5.06979 13.6458 6.06406 13.6458 7.26927C13.6458 9.03125 12.4682 9.8224 11.4292 10.5208Z" fill="#494949"/>
</svg>
