<svg width="18" height="18" viewBox="0 0 18 18" fill="none" xmlns="http://www.w3.org/2000/svg">
<path d="M9 0C4.03125 0 0 4.03125 0 9C0 13.9688 4.03125 18 9 18C13.9688 18 18 13.9688 18 9C18 4.03125 13.9688 0 9 0ZM8.71875 14.25C8.53333 14.25 8.35207 14.195 8.1979 14.092C8.04373 13.989 7.92357 13.8426 7.85261 13.6713C7.78166 13.5 7.76309 13.3115 7.79926 13.1296C7.83544 12.9477 7.92473 12.7807 8.05584 12.6496C8.18695 12.5185 8.354 12.4292 8.53585 12.393C8.71771 12.3568 8.90621 12.3754 9.07751 12.4464C9.24882 12.5173 9.39524 12.6375 9.49825 12.7917C9.60127 12.9458 9.65625 13.1271 9.65625 13.3125C9.65625 13.5611 9.55748 13.7996 9.38166 13.9754C9.20585 14.1512 8.96739 14.25 8.71875 14.25ZM10.2863 9.46875C9.52641 9.97875 9.42188 10.4461 9.42188 10.875C9.42188 11.049 9.35274 11.216 9.22966 11.339C9.10659 11.4621 8.93967 11.5312 8.76562 11.5312C8.59158 11.5312 8.42466 11.4621 8.30159 11.339C8.17852 11.216 8.10938 11.049 8.10938 10.875C8.10938 9.84797 8.58188 9.03141 9.55406 8.37844C10.4578 7.77188 10.9688 7.3875 10.9688 6.54234C10.9688 5.96766 10.6406 5.53125 9.96141 5.20828C9.80156 5.13234 9.44578 5.05828 9.00797 5.06344C8.45859 5.07047 8.03203 5.20172 7.70344 5.46609C7.08375 5.96484 7.03125 6.50766 7.03125 6.51562C7.02286 6.68967 6.94567 6.85326 6.81667 6.9704C6.68766 7.08753 6.51741 7.14863 6.34336 7.14023C6.16931 7.13184 6.00573 7.05465 5.88859 6.92565C5.77145 6.79665 5.71036 6.62639 5.71875 6.45234C5.72391 6.33844 5.80313 5.31234 6.87984 4.44609C7.43813 3.99703 8.14828 3.76359 8.98922 3.75328C9.58453 3.74625 10.1437 3.84703 10.523 4.02609C11.6578 4.56281 12.2812 5.45766 12.2812 6.54234C12.2812 8.12813 11.2214 8.84016 10.2863 9.46875Z" fill="#494949"/>
</svg>
