<svg width="24" height="24" viewBox="0 0 24 24" fill="none" xmlns="http://www.w3.org/2000/svg">
<path d="M2.4 18.4H2.25V18.55H2.4H9.531M2.4 18.4V0M2.4 18.4H2.55H9.66M2.4 18.4L10.2414 20.7C10.2163 20.6504 10.1916 20.6004 10.1675 20.55M9.531 18.55C9.59261 18.9339 9.68342 19.3025 9.80359 19.6558C9.90908 19.9659 10.0304 20.264 10.1675 20.55M9.531 18.55C9.52414 18.5072 9.51764 18.4643 9.5115 18.4211L9.66 18.4M9.531 18.55H9.66V18.4M10.1675 20.55H2.4C1.77804 20.55 1.25061 20.3395 0.809386 19.9167C0.368384 19.494 0.15077 18.9911 0.15 18.3999M10.1675 20.55H10.3342C10.1868 20.2499 10.0573 19.9357 9.9456 19.6075C9.8152 19.2242 9.72 18.8217 9.66 18.4M0.15 18.3999V2.3C0.15 1.70976 0.367497 1.20726 0.809294 0.784586C1.25143 0.361591 1.77901 0.150722 2.40017 0.15M0.15 18.3999V18.4H0L0.15 18.3998C0.15 18.3998 0.15 18.3999 0.15 18.3999ZM2.40017 0.15L19.2 0.15C19.8219 0.15 20.3497 0.360845 20.7918 0.784498C21.2337 1.20796 21.4507 1.71046 21.45 2.29981V2.3V9.77508M2.40017 0.15L2.4 0.15V0M2.40017 0.15L2.4 0M21.45 9.77508C21.1316 9.63922 20.8064 9.51976 20.4745 9.4167C20.1078 9.30284 19.7329 9.21618 19.35 9.15669M21.45 9.77508V9.93839C21.1175 9.79401 20.7775 9.66786 20.43 9.55995C20.03 9.43575 19.62 9.34452 19.2 9.28625M21.45 9.77508C21.5002 9.79648 21.5502 9.8183 21.6 9.84052V2.3C21.6008 1.66827 21.366 1.127 20.8956 0.6762C20.4252 0.2254 19.86 0 19.2 0H2.4M19.35 9.15669V2.3V2.15H19.2H2.4H2.25V2.3H2.4H2.55H19.05H19.2V2.45V9.28625M19.35 9.15669V9.28625H19.2M19.35 9.15669C19.307 9.15001 19.2638 9.14367 19.2206 9.13767L19.2 9.28625M18 22.85H18.0001C19.6216 22.8507 20.9989 22.3046 22.1406 21.2104C23.2821 20.1165 23.85 18.7991 23.85 17.25V17.2499C23.8508 15.7017 23.2833 14.3847 22.1418 13.2907C21.0001 12.1966 19.6224 11.65 18.0001 11.65L18 22.85ZM18 22.85C16.3776 22.85 15.0003 22.3034 13.8594 21.2093M18 22.85L13.8594 21.2093M13.8594 21.2093C12.7187 20.1153 12.1508 18.7983 12.15 17.2499M13.8594 21.2093L12.15 17.2499M12.15 17.2499C12.15 15.7009 12.7179 14.3839 13.8593 13.2908C15.0011 12.1974 16.3784 11.6508 18 11.65L12.15 17.2499ZM17.25 20.7V20.85H17.4H18.6H18.75V20.7V17.975H21.6H21.75V17.825V16.675V16.525H21.6H18.75V13.8V13.65H18.6H17.4H17.25V13.8V16.525H14.4H14.25V16.675V17.825V17.975H14.4H17.25V20.7ZM9.83359 14.8729C9.71413 15.2241 9.62357 15.5832 9.56191 15.95H4.95V13.95H10.1827C10.0568 14.2514 9.94038 14.559 9.83359 14.8729ZM14.2001 9.92754C13.415 10.3083 12.7024 10.7825 12.0628 11.35H4.95V9.35H15.7532C15.2147 9.4941 14.697 9.68659 14.2001 9.92754ZM16.65 4.75V6.75H4.95V4.75H16.65Z" fill="#595D67" stroke="#595D67" stroke-width="0.3"/>
</svg>
