<svg xmlns="http://www.w3.org/2000/svg" xmlns:xlink="http://www.w3.org/1999/xlink" version="1.1" width="20pt" height="20pt" viewBox="0 0 20 20">
<defs>
<clipPath id="clip_0">
<path transform="matrix(1,0,0,-1,0,20)" d="M2 2.000002C1.45 2.000002 .979333 2.195667 .588 2.587 .196667 2.978334 .000667 3.449335 0 4.000001V18C0 18.55 .196 19.020667 .588 19.412 .98 19.803334 1.450667 19.999333 2 20H15.999999C16.55 20 17.021 19.804 17.412999 19.412 17.804999 19.02 18.000666 18.549334 17.999999 18V11.300001C17.683333 11.450001 17.358332 11.579 17.024998 11.687 16.691666 11.795 16.349999 11.874334 15.999999 11.925001V18H2V4.000001H8.049999C8.099999 3.633335 8.179333 3.283335 8.287999 2.950003 8.396667 2.616669 8.525666 2.300001 8.674999 2.000002H2ZM2 4.000001V18 11.925001 12 4.000001ZM4 6H8.075C8.124999 6.35 8.204332 6.691667 8.312999 7.025001 8.421666 7.358334 8.542333 7.683334 8.674999 8.000001H4V6ZM4 10H10.099999C10.633333 10.5 11.229333 10.916667 11.888 11.25 12.546666 11.583334 13.250666 11.808334 13.999999 11.925001V12H4V10ZM4 14H13.999999V16H4V14ZM14.999998 0C13.616665 0 12.437666 .487667 11.462999 1.462999 10.488333 2.438334 10.000666 3.617334 9.999999 5.000001 9.999999 6.383334 10.487666 7.562333 11.462999 8.537 12.438333 9.511666 13.617332 9.999333 14.999998 10 16.383332 10 17.562666 9.512333 18.538 8.537 19.513333 7.561666 20.000664 6.382668 19.999999 5.000001 19.999999 3.616667 19.512333 2.437334 18.536999 1.462002 17.561667 .486668 16.382664-.000666 14.999998 0ZM14.499999 2.000002H15.499998V4.500002H17.999999V5.500001H15.499998V8.000001H14.499999V5.500001H11.999999V4.500002H14.499999V2.000002Z" fill-rule="evenodd"/>
</clipPath>
</defs>
<path transform="matrix(1,0,0,-1,0,20.00061)" d="M2 2.000612C1.45 2.000612 .979333 2.196278 .588 2.58761 .196667 2.978945 .000667 3.449945 0 4.000611V18.00061C0 18.55061 .196 19.021277 .588 19.412611 .98 19.803944 1.450667 19.999943 2 20.00061H15.999999C16.55 20.00061 17.021 19.804612 17.412999 19.412611 17.804999 19.02061 18.000666 18.549944 17.999999 18.00061V11.300611C17.683333 11.450611 17.358332 11.579611 17.024998 11.687611 16.691666 11.79561 16.349999 11.874945 15.999999 11.925611V18.00061H2V4.000611H8.049999C8.099999 3.633945 8.179333 3.283945 8.287999 2.950613 8.396667 2.617279 8.525666 2.300611 8.674999 2.000612H2ZM2 4.000611V18.00061 11.925611 12.00061 4.000611ZM4 6.00061H8.075C8.124999 6.350611 8.204332 6.692277 8.312999 7.025611 8.421666 7.358944 8.542333 7.683945 8.674999 8.000611H4V6.00061ZM4 10.00061H10.099999C10.633333 10.50061 11.229333 10.917277 11.888 11.25061 12.546666 11.583944 13.250666 11.808945 13.999999 11.925611V12.00061H4V10.00061ZM4 14.00061H13.999999V16.00061H4V14.00061ZM14.999998 .00061C13.616665 .00061 12.437666 .488277 11.462999 1.46361 10.488333 2.438944 10.000666 3.617945 9.999999 5.000611 9.999999 6.383945 10.487666 7.562943 11.462999 8.53761 12.438333 9.512277 13.617332 9.999944 14.999998 10.00061 16.383332 10.00061 17.562666 9.512943 18.538 8.53761 19.513333 7.562277 20.000664 6.383278 19.999999 5.000611 19.999999 3.617277 19.512333 2.437944 18.536999 1.462612 17.561667 .487278 16.382664-.000055 14.999998 .00061ZM14.499999 2.000612H15.499998V4.500612H17.999999V5.500611H15.499998V8.000611H14.499999V5.500611H11.999999V4.500612H14.499999V2.000612Z" fill="#212121"/>
<g clip-path="url(#clip_0)">
<path transform="matrix(1,0,0,-1,0,20.00061)" d="M1.85 18.00061V4.000611H2.15V18.00061H1.85ZM0 4.000611H-.3V4.000248L0 4.000611ZM2 20.00061V20.300612L1.999636 20.30061 2 20.00061ZM17.999999 18.00061 17.699999 18.000975V18.00061H17.999999ZM17.999999 11.300611 17.871573 11.02949 18.3 10.826551V11.300611H17.999999ZM15.999999 11.925611H15.699999V11.665913L15.957018 11.628706 15.999999 11.925611ZM15.999999 18.00061H16.3V18.30061H15.999999V18.00061ZM2 18.00061V18.30061H1.7V18.00061H2ZM2 4.000611H1.7V3.700611H2V4.000611ZM8.049999 4.000611 8.347249 4.041145 8.311867 4.300611H8.049999V4.000611ZM8.674999 2.000612V1.700611H9.159446L8.943566 2.134298 8.674999 2.000612ZM4 6.00061H3.7V5.70061H4V6.00061ZM8.075 6.00061V5.70061H8.335188L8.371984 5.958184 8.075 6.00061ZM8.674999 8.000611 8.951698 7.884689 9.125948 8.300611H8.674999V8.000611ZM4 8.000611V8.300611H3.7V8.000611H4ZM4 10.00061H3.7V9.700611H4V10.00061ZM10.099999 10.00061V9.700611H10.218634L10.305182 9.78175 10.099999 10.00061ZM13.999999 11.925611 14.046151 11.629183 14.299999 11.668705V11.925611H13.999999ZM13.999999 12.00061H14.299999V12.300611H13.999999V12.00061ZM4 12.00061V12.300611H3.7V12.00061H4ZM4 14.00061H3.7V13.700611H4V14.00061ZM13.999999 14.00061V13.700611H14.299999V14.00061H13.999999ZM13.999999 16.00061H14.299999V16.30061H13.999999V16.00061ZM4 16.00061V16.30061H3.7V16.00061H4ZM14.999998 .00061 15.000143 .300611H14.999998V.00061ZM9.999999 5.000611H9.699999V5.000466L9.999999 5.000611ZM14.999998 10.00061V10.300611H14.999853L14.999998 10.00061ZM19.999999 5.000611 19.699999 5.000755V5.000611H19.999999ZM14.499999 2.000612H14.199999V1.700611H14.499999V2.000612ZM15.499998 2.000612V1.700611H15.799998V2.000612H15.499998ZM15.499998 4.500612V4.800611H15.199998V4.500612H15.499998ZM17.999999 4.500612V4.200612H18.3V4.500612H17.999999ZM17.999999 5.500611H18.3V5.800611H17.999999V5.500611ZM15.499998 5.500611H15.199998V5.200611H15.499998V5.500611ZM15.499998 8.000611H15.799998V8.300611H15.499998V8.000611ZM14.499999 8.000611V8.300611H14.199999V8.000611H14.499999ZM14.499999 5.500611V5.200611H14.799999V5.500611H14.499999ZM11.999999 5.500611V5.800611H11.7V5.500611H11.999999ZM11.999999 4.500612H11.7V4.200612H11.999999V4.500612ZM14.499999 4.500612H14.799999V4.800611H14.499999V4.500612ZM2 2.300611C1.530121 2.300611 1.135599 2.464275 .800132 2.799744L.375868 2.375479C.823068 1.92828 1.369879 1.700611 2 1.700611V2.300611ZM.800132 2.799744C.464654 3.135221 .30057 3.530193 .3 4.000975L-.3 4.000248C-.299236 3.369696-.07132 2.822668 .375868 2.375479L.800132 2.799744ZM.3 4.000611V18.00061H-.3V4.000611H.3ZM.3 18.00061C.3 18.470324 .463873 18.864792 .799951 19.200299L.376049 19.624924C-.071873 19.177763-.3 18.630898-.3 18.00061H.3ZM.799951 19.200299C1.136319 19.536093 1.531119 19.70004 2.000364 19.700612L1.999636 20.30061C1.370214 20.299847 .823681 20.071795 .376049 19.624924L.799951 19.200299ZM2 19.700612H15.999999V20.30061H2V19.700612ZM15.999999 19.700612C16.469725 19.700612 16.864626 19.53672 17.200867 19.200478L17.625132 19.624743C17.177374 20.0725 16.630272 20.30061 15.999999 20.30061V19.700612ZM17.200867 19.200478C17.537098 18.864247 17.700568 18.469799 17.699999 18.000975L18.299998 18.000247C18.300763 18.630089 18.0729 19.176974 17.625132 19.624743L17.200867 19.200478ZM17.699999 18.00061V11.300611H18.3V18.00061H17.699999ZM18.128424 11.571733C17.80009 11.727259 17.46308 11.861026 17.117466 11.973004L16.932532 11.402217C17.253584 11.298196 17.566573 11.173964 17.871573 11.02949L18.128424 11.571733ZM17.117466 11.973004C16.767844 12.086283 16.409615 12.169441 16.042979 12.222517L15.957018 11.628706C16.290383 11.580448 16.615489 11.504939 16.932532 11.402217L17.117466 11.973004ZM16.3 11.925611V18.00061H15.699999V11.925611H16.3ZM15.999999 18.30061H2V17.700612H15.999999V18.30061ZM2 3.700611H8.049999V4.300611H2V3.700611ZM7.75275 3.960077C7.805045 3.576584 7.888237 3.208965 8.002773 2.857628L8.573226 3.043596C8.470428 3.358925 8.394954 3.691305 8.347249 4.041145L7.75275 3.960077ZM8.002773 2.857628C8.115781 2.510979 8.250265 2.180656 8.406433 1.866926L8.943566 2.134298C8.801067 2.420567 8.677551 2.723579 8.573226 3.043596L8.002773 2.857628ZM8.674999 2.300611H2V1.700611H8.674999V2.300611ZM1.7 18.00061V11.925611H2.3V18.00061H1.7ZM2.3 11.925611V12.00061H1.7V11.925611H2.3ZM4 5.70061H8.075V6.300611H4V5.70061ZM8.371984 5.958184C8.419554 6.291169 8.494977 6.615913 8.598226 6.932627L8.027773 7.118594C7.913688 6.768641 7.830445 6.410052 7.778015 6.043036L8.371984 5.958184ZM8.598226 6.932627C8.704416 7.258365 8.82225 7.575706 8.951698 7.884689L8.398301 8.116533C8.262415 7.792183 8.138916 7.459523 8.027773 7.118594L8.598226 6.932627ZM8.674999 8.300611H4V7.700611H8.674999V8.300611ZM3.7 8.000611V6.00061H4.3V8.000611H3.7ZM4 9.700611H10.099999V10.300611H4V9.700611ZM10.305182 9.78175C10.817509 10.262055 11.389985 10.662351 12.023462 10.982936L11.752536 11.518286C11.06868 11.172204 10.449158 10.739166 9.894817 10.219472L10.305182 9.78175ZM12.023462 10.982936C12.653286 11.301673 13.327053 11.517223 14.046151 11.629183L13.953847 12.22204C13.174278 12.100666 12.440045 11.866216 11.752536 11.518286L12.023462 10.982936ZM14.299999 11.925611V12.00061H13.699999V11.925611H14.299999ZM13.999999 12.300611H4V11.700611H13.999999V12.300611ZM3.7 12.00061V10.00061H4.3V12.00061H3.7ZM4 13.700611H13.999999V14.300611H4V13.700611ZM14.299999 14.00061V16.00061H13.699999V14.00061H14.299999ZM13.999999 16.30061H4V15.700611H13.999999V16.30061ZM3.7 16.00061V14.00061H4.3V16.00061H3.7ZM14.999998 .300611C13.695974 .300611 12.593399 .756847 11.675204 1.675671L11.250795 1.251551C12.281934 .219707 13.537355-.299389 14.999998-.299389V.300611ZM11.675204 1.675671C10.756893 2.594608 10.300628 3.697321 10.299999 5.000755L9.699999 5.000466C9.700704 3.538567 10.219773 2.283278 11.250795 1.251551L11.675204 1.675671ZM10.299999 5.000611C10.299999 6.304634 10.756237 7.407211 11.675059 8.325406L11.25094 8.749815C10.219096 7.718677 9.699999 6.463254 9.699999 5.000611H10.299999ZM11.675059 8.325406C12.593998 9.243717 13.696709 9.699983 15.000143 9.700611L14.999853 10.300611C13.537954 10.299906 12.282667 9.780837 11.25094 8.749815L11.675059 8.325406ZM14.999998 9.700611C16.304026 9.700611 17.406979 9.244367 18.325867 8.325479L18.750132 8.749743C17.718354 9.781521 16.462637 10.300611 14.999998 10.300611V9.700611ZM18.325867 8.325479C19.244751 7.406595 19.700627 6.304025 19.699999 5.000755L20.299998 5.000466C20.300704 6.462531 19.781914 7.717959 18.750132 8.749743L18.325867 8.325479ZM19.699999 5.000611C19.699999 3.696583 19.243756 2.593632 18.324868 1.674744L18.749133 1.250481C19.780909 2.282257 20.299998 3.537973 20.299998 5.000611H19.699999ZM18.324868 1.674744C17.405983 .755859 16.303412 .299982 15.000143 .300611L14.999853-.299389C16.461918-.300095 17.717349 .218697 18.749133 1.250481L18.324868 1.674744ZM14.499999 1.700611H15.499998V2.300611H14.499999V1.700611ZM15.799998 2.000612V4.500612H15.199998V2.000612H15.799998ZM15.499998 4.200612H17.999999V4.800611H15.499998V4.200612ZM18.3 4.500612V5.500611H17.699999V4.500612H18.3ZM17.999999 5.800611H15.499998V5.200611H17.999999V5.800611ZM15.799998 5.500611V8.000611H15.199998V5.500611H15.799998ZM15.499998 8.300611H14.499999V7.700611H15.499998V8.300611ZM14.199999 8.000611V5.500611H14.799999V8.000611H14.199999ZM14.499999 5.800611H11.999999V5.200611H14.499999V5.800611ZM11.7 5.500611V4.500612H12.299999V5.500611H11.7ZM11.999999 4.200612H14.499999V4.800611H11.999999V4.200612ZM14.199999 4.500612V2.000612H14.799999V4.500612H14.199999ZM1.7 12.00061V4.000611H2.3V12.00061H1.7Z" fill="#212121"/>
</g>
</svg>
