<svg xmlns="http://www.w3.org/2000/svg" xmlns:xlink="http://www.w3.org/1999/xlink" version="1.1" width="20pt" height="20pt" viewBox="0 0 20 20">
<defs>
<clipPath id="clip_0">
<path transform="matrix(1,0,0,-1,0,20)" d="M1.979306 2.000002C1.434997 2.000002 .9692 2.195667 .581916 2.587 .194632 2.978334 .00066 3.449335 0 4.000001V18C0 18.55 .193972 19.020667 .581916 19.412 .96986 19.803334 1.435657 19.999333 1.979306 20H15.834447C16.378756 20 16.844883 19.804 17.232829 19.412 17.620772 19.02 17.814414 18.549334 17.813754 18V11.300001C17.500363 11.450001 17.178727 11.579 16.84884 11.687 16.518958 11.795 16.180827 11.874334 15.834447 11.925001V18H1.979306V4.000001H7.966707C8.01619 3.633335 8.094702 3.283335 8.202244 2.950003 8.309786 2.616669 8.437451 2.300001 8.585239 2.000002H1.979306ZM1.979306 4.000001V18 11.925001 12 4.000001ZM3.958612 6H7.991448C8.040931 6.35 8.119443 6.691667 8.226985 7.025001 8.334527 7.358334 8.453946 7.683334 8.585239 8.000001H3.958612V6ZM3.958612 10H9.995496C10.523311 10.5 11.113143 10.916667 11.764995 11.25 12.416846 11.583334 13.113562 11.808334 13.855142 11.925001V12H3.958612V10ZM3.958612 14H13.855142V16H3.958612V14ZM14.844793 0C13.475774 0 12.308974 .487667 11.344393 1.462999 10.37981 2.438334 9.897189 3.617334 9.896529 5.000001 9.896529 6.383334 10.379151 7.562333 11.344393 8.537 12.309634 9.511666 13.476434 9.999333 14.844793 10 16.213814 10 17.380946 9.512333 18.346188 8.537 19.311429 7.561666 19.793719 6.382668 19.793059 5.000001 19.793059 3.616667 19.31044 2.437334 18.345198 1.462002 17.379958 .486668 16.213154-.000666 14.844793 0ZM14.349968 2.000002H15.339621V4.500002H17.813754V5.500001H15.339621V8.000001H14.349968V5.500001H11.875835V4.500002H14.349968V2.000002Z" fill-rule="evenodd"/>
</clipPath>
<clipPath id="clip_1">
<path transform="matrix(1,0,0,-1,0,20)" d="M15 10C13.678897 9.983971 12.41642 9.45204 11.48219 8.51781 10.54796 7.58358 10.016029 6.321103 10 5 10.016029 3.678898 10.54796 2.41642 11.48219 1.482189 12.41642 .54796 13.678897 .016029 15 0 16.321103 .016029 17.58358 .54796 18.51781 1.482189 19.45204 2.41642 19.98397 3.678898 20 5 19.98397 6.321103 19.45204 7.58358 18.51781 8.51781 17.58358 9.45204 16.321103 9.983971 15 10ZM17.857144 4.642857H15.357143V2.142857H14.642857V4.642857H12.142857V5.357143H14.642857V7.857143H15.357143V5.357143H17.857144V4.642857Z" fill-rule="evenodd"/>
</clipPath>
</defs>
<path transform="matrix(1,0,0,-1,0,20.000672)" d="M1.979306 2.000673C1.434997 2.000673 .9692 2.196339 .581916 2.587671 .194632 2.979006 .00066 3.450006 0 4.000672V18.000672C0 18.55067 .193972 19.021338 .581916 19.412672 .96986 19.804005 1.435657 20.000004 1.979306 20.000672H15.834447C16.378756 20.000672 16.844883 19.804673 17.232829 19.412672 17.620772 19.020672 17.814414 18.550005 17.813754 18.000672V11.300673C17.500363 11.450672 17.178727 11.579672 16.84884 11.687672 16.518958 11.795671 16.180827 11.875006 15.834447 11.925673V18.000672H1.979306V4.000672H7.966707C8.01619 3.634007 8.094702 3.284006 8.202244 2.950674 8.309786 2.61734 8.437451 2.300673 8.585239 2.000673H1.979306ZM1.979306 4.000672V18.000672 11.925673 12.000671 4.000672ZM3.958612 6.000671H7.991448C8.040931 6.350672 8.119443 6.692338 8.226985 7.025672 8.334527 7.359005 8.453946 7.684006 8.585239 8.000672H3.958612V6.000671ZM3.958612 10.000671H9.995496C10.523311 10.500671 11.113143 10.917338 11.764995 11.250671 12.416846 11.584005 13.113562 11.809006 13.855142 11.925673V12.000671H3.958612V10.000671ZM3.958612 14.000671H13.855142V16.000672H3.958612V14.000671ZM14.844793 .000671C13.475774 .000671 12.308974 .488338 11.344393 1.463671 10.37981 2.439005 9.897189 3.618006 9.896529 5.000672 9.896529 6.384006 10.379151 7.563004 11.344393 8.537671 12.309634 9.512338 13.476434 10.000005 14.844793 10.000671 16.213814 10.000671 17.380946 9.513004 18.346188 8.537671 19.311429 7.562338 19.793719 6.383339 19.793059 5.000672 19.793059 3.617338 19.31044 2.438005 18.345198 1.462673 17.379958 .487339 16.213154 .000006 14.844793 .000671ZM14.349968 2.000673H15.339621V4.500673H17.813754V5.500672H15.339621V8.000672H14.349968V5.500672H11.875835V4.500673H14.349968V2.000673Z" fill="#212121"/>
<g clip-path="url(#clip_0)">
<path transform="matrix(1,0,0,-1,0,20.000672)" d="M1.829306 18.000672V4.000672H2.129306V18.000672H1.829306ZM0 4.000672H-.3V4.000313L0 4.000672ZM1.979306 20.000672V20.300673L1.978938 20.30067 1.979306 20.000672ZM17.813754 18.000672 17.513754 18.001032V18.000672H17.813754ZM17.813754 11.300673 17.684233 11.030071 18.113753 10.824488V11.300673H17.813754ZM15.834447 11.925673H15.534448V11.666363L15.791027 11.628831 15.834447 11.925673ZM15.834447 18.000672H16.134448V18.30067H15.834447V18.000672ZM1.979306 18.000672V18.30067H1.679306V18.000672H1.979306ZM1.979306 4.000672H1.679306V3.700672H1.979306V4.000672ZM7.966707 4.000672 8.264011 4.040794 8.22894 4.300673H7.966707V4.000672ZM8.585239 2.000673V1.700672H9.067455L8.854357 2.133247 8.585239 2.000673ZM3.958612 6.000671H3.658612V5.700671H3.958612V6.000671ZM7.991448 6.000671V5.700671H8.252017L8.288494 5.958675 7.991448 6.000671ZM8.585239 8.000672 8.862365 7.885773 9.034387 8.300673H8.585239V8.000672ZM3.958612 8.000672V8.300673H3.658612V8.000672H3.958612ZM3.958612 10.000671H3.658612V9.700672H3.958612V10.000671ZM9.995496 10.000671V9.700672H10.115031L10.201811 9.782879 9.995496 10.000671ZM13.855142 11.925673 13.901765 11.629317 14.155142 11.669179V11.925673H13.855142ZM13.855142 12.000671H14.155142V12.300673H13.855142V12.000671ZM3.958612 12.000671V12.300673H3.658612V12.000671H3.958612ZM3.958612 14.000671H3.658612V13.700672H3.958612V14.000671ZM13.855142 14.000671V13.700672H14.155142V14.000671H13.855142ZM13.855142 16.000672H14.155142V16.30067H13.855142V16.000672ZM3.958612 16.000672V16.30067H3.658612V16.000672H3.958612ZM14.844793 .000671 14.84494 .300673H14.844793V.000671ZM9.896529 5.000672H9.596529V5.000528L9.896529 5.000672ZM14.844793 10.000671V10.300672H14.844647L14.844793 10.000671ZM19.793059 5.000672 19.49306 5.000815V5.000672H19.793059ZM14.349968 2.000673H14.049969V1.700672H14.349968V2.000673ZM15.339621 2.000673V1.700672H15.639621V2.000673H15.339621ZM15.339621 4.500673V4.800673H15.03962V4.500673H15.339621ZM17.813754 4.500673V4.200673H18.113753V4.500673H17.813754ZM17.813754 5.500672H18.113753V5.800673H17.813754V5.500672ZM15.339621 5.500672H15.03962V5.200672H15.339621V5.500672ZM15.339621 8.000672H15.639621V8.300673H15.339621V8.000672ZM14.349968 8.000672V8.300673H14.049969V8.000672H14.349968ZM14.349968 5.500672V5.200672H14.649968V5.500672H14.349968ZM11.875835 5.500672V5.800673H11.575836V5.500672H11.875835ZM11.875835 4.500673H11.575836V4.200673H11.875835V4.500673ZM14.349968 4.500673H14.649968V4.800673H14.349968V4.500673ZM1.979306 2.300673C1.516134 2.300673 1.126814 2.463564 .795148 2.798698L.368684 2.376646C.811586 1.929113 1.35386 1.700672 1.979306 1.700672V2.300673ZM.795148 2.798698C.463375 3.13394 .300565 3.529249 .3 4.001032L-.3 4.000313C-.299246 3.370762-.074111 2.82407 .368684 2.376646L.795148 2.798698ZM.3 4.000672V18.000672H-.3V4.000672H.3ZM.3 18.000672C.3 18.471392 .462604 18.866196 .794969 19.201464L.368863 19.623879C-.07466 19.176482-.3 18.629952-.3 18.000672H.3ZM.794969 19.201464C1.127528 19.536929 1.517126 19.700104 1.979674 19.700673L1.978938 20.30067C1.354187 20.299906 .812192 20.071082 .368863 19.623879L.794969 19.201464ZM1.979306 19.700673H15.834447V20.30067H1.979306V19.700673ZM15.834447 19.700673C16.297467 19.700673 16.68716 19.537556 17.019595 19.201645L17.44606 19.623698C17.002608 20.071787 16.460047 20.30067 15.834447 20.30067V19.700673ZM17.019595 19.201645C17.352112 18.865653 17.514317 18.470864 17.513754 18.001032L18.113753 18.00031C18.114508 18.629145 17.889431 19.175692 17.44606 19.623698L17.019595 19.201645ZM17.513754 18.000672V11.300673H18.113753V18.000672H17.513754ZM17.943272 11.571273C17.61816 11.726883 17.28444 11.860731 16.942183 11.972781L16.7555 11.402562C17.073012 11.298613 17.382565 11.174461 17.684233 11.030071L17.943272 11.571273ZM16.942183 11.972781C16.595887 12.086155 16.241047 12.16939 15.877868 12.222513L15.791027 11.628831C16.120606 11.580622 16.442028 11.505189 16.7555 11.402562L16.942183 11.972781ZM16.134448 11.925673V18.000672H15.534448V11.925673H16.134448ZM15.834447 18.30067H1.979306V17.700673H15.834447V18.30067ZM1.979306 3.700672H7.966707V4.300673H1.979306V3.700672ZM7.669402 3.96055C7.721133 3.577223 7.803428 3.209761 7.916735 2.858561L8.487753 3.042786C8.385975 3.358252 8.311246 3.690788 8.264011 4.040794L7.669402 3.96055ZM7.916735 2.858561C8.028542 2.512011 8.1616 2.18177 8.316123 1.868099L8.854357 2.133247C8.713304 2.419577 8.591031 2.72267 8.487753 3.042786L7.916735 2.858561ZM8.585239 2.300673H1.979306V1.700672H8.585239V2.300673ZM1.679306 18.000672V11.925673H2.279306V18.000672H1.679306ZM2.279306 11.925673V12.000671H1.679306V11.925673H2.279306ZM3.958612 5.700671H7.991448V6.300672H3.958612V5.700671ZM8.288494 5.958675C8.335594 6.291828 8.410274 6.61672 8.512494 6.933558L7.941476 7.117785C7.828612 6.767956 7.746266 6.409515 7.694402 6.042667L8.288494 5.958675ZM8.512494 6.933558C8.617603 7.259353 8.734238 7.576746 8.862365 7.885773L8.308115 8.115572C8.173654 7.791265 8.051451 7.458656 7.941476 7.117785L8.512494 6.933558ZM8.585239 8.300673H3.958612V7.700672H8.585239V8.300673ZM3.658612 8.000672V6.000671H4.258612V8.000672H3.658612ZM3.958612 9.700672H9.995496V10.300672H3.958612V9.700672ZM10.201811 9.782879C10.708707 10.263062 11.275024 10.66317 11.901582 10.983568L11.628407 11.517775C10.951262 11.171507 10.337914 10.738282 9.78918 10.218465L10.201811 9.782879ZM11.901582 10.983568C12.524465 11.302089 13.190726 11.517455 13.901765 11.629317L13.808518 12.222027C13.036397 12.100555 12.309227 11.865921 11.628407 11.517775L11.901582 10.983568ZM14.155142 11.925673V12.000671H13.555141V11.925673H14.155142ZM13.855142 12.300673H3.958612V11.700672H13.855142V12.300673ZM3.658612 12.000671V10.000671H4.258612V12.000671H3.658612ZM3.958612 13.700672H13.855142V14.300673H3.958612V13.700672ZM14.155142 14.000671V16.000672H13.555141V14.000671H14.155142ZM13.855142 16.30067H3.958612V15.700672H13.855142V16.30067ZM3.658612 16.000672V14.000671H4.258612V16.000672H3.658612ZM14.844793 .300673C13.556095 .300673 12.466052 .756145 11.557697 1.674625L11.131088 1.252718C12.151896 .220531 13.395452-.299328 14.844793-.299328V.300673ZM11.557697 1.674625C10.649117 2.59333 10.197152 3.696383 10.196529 5.000815L9.596529 5.000528C9.597226 3.539627 10.110504 2.284678 11.131088 1.252718L11.557697 1.674625ZM10.196529 5.000672C10.196529 6.305696 10.648468 7.408611 11.557552 8.326572L11.131232 8.748771C10.109834 7.717398 9.596529 6.462315 9.596529 5.000672H10.196529ZM11.557552 8.326572C12.466644 9.244541 13.556822 9.700045 14.84494 9.700672L14.844647 10.300672C13.396045 10.299966 12.152624 9.780135 11.131232 8.748771L11.557552 8.326572ZM14.844793 9.700672C16.133498 9.700672 17.223914 9.245192 18.132956 8.326646L18.55942 8.748697C17.53798 9.780818 16.29413 10.300672 14.844793 10.300672V9.700672ZM18.132956 8.326646C19.0421 7.407995 19.493681 6.305084 19.49306 5.000815L20.09306 5.000528C20.093756 6.461593 19.580758 7.716681 18.55942 8.748697L18.132956 8.326646ZM19.49306 5.000672C19.49306 3.695644 19.041117 2.592354 18.131966 1.673698L18.55843 1.251646C19.579764 2.283657 20.09306 3.539034 20.09306 5.000672H19.49306ZM18.131966 1.673698C17.222929 .755157 16.132889 .300045 14.84494 .300673L14.844647-.299328C16.293419-.300034 17.536984 .219522 18.55843 1.251646L18.131966 1.673698ZM14.349968 1.700672H15.339621V2.300673H14.349968V1.700672ZM15.639621 2.000673V4.500673H15.03962V2.000673H15.639621ZM15.339621 4.200673H17.813754V4.800673H15.339621V4.200673ZM18.113753 4.500673V5.500672H17.513754V4.500673H18.113753ZM17.813754 5.800673H15.339621V5.200672H17.813754V5.800673ZM15.639621 5.500672V8.000672H15.03962V5.500672H15.639621ZM15.339621 8.300673H14.349968V7.700672H15.339621V8.300673ZM14.049969 8.000672V5.500672H14.649968V8.000672H14.049969ZM14.349968 5.800673H11.875835V5.200672H14.349968V5.800673ZM11.575836 5.500672V4.500673H12.175836V5.500672H11.575836ZM11.875835 4.200673H14.349968V4.800673H11.875835V4.200673ZM14.049969 4.500673V2.000673H14.649968V4.500673H14.049969ZM1.679306 12.000671V4.000672H2.279306V12.000671H1.679306Z" fill="#212121"/>
</g>
<path transform="matrix(1,0,0,-1,10,20)" d="M5 10C3.678897 9.983971 2.41642 9.45204 1.48219 8.51781 .54796 7.58358 .01603 6.321103 0 5 .01603 3.678897 .54796 2.41642 1.48219 1.48219 2.41642 .54796 3.678897 .016029 5 0 6.321103 .016029 7.58358 .54796 8.51781 1.48219 9.45204 2.41642 9.983971 3.678897 10 5 9.983971 6.321103 9.45204 7.58358 8.51781 8.51781 7.58358 9.45204 6.321103 9.983971 5 10ZM7.857143 4.642857H5.357143V2.142857H4.642857V4.642857H2.142857V5.357143H4.642857V7.857143H5.357143V5.357143H7.857143V4.642857Z" fill="#3387e0"/>
<g clip-path="url(#clip_1)">
<path transform="matrix(1,0,0,-1,10,20)" d="M5 10 5.012133 10.999927 5 11.000073 4.987867 10.999927 5 10ZM0 5-.999926 5.012133-1.000074 5-.999926 4.987867 0 5ZM5 0 4.987867-.999927 5-1.000073 5.012133-.999927 5 0ZM10 5 10.999927 4.987867 11.000073 5 10.999927 5.012133 10 5ZM7.857143 4.642857V3.642857H8.857143V4.642857H7.857143ZM5.357143 4.642857V5.642857H4.357143V4.642857H5.357143ZM5.357143 2.142857V1.142857H6.357143V2.142857H5.357143ZM4.642857 2.142857H3.642857V1.142857H4.642857V2.142857ZM4.642857 4.642857H5.642857V5.642857H4.642857V4.642857ZM2.142857 4.642857H1.142857V3.642857H2.142857V4.642857ZM2.142857 5.357143V6.357142H1.142857V5.357143H2.142857ZM4.642857 5.357143V4.357143H5.642857V5.357143H4.642857ZM4.642857 7.857143V8.857142H3.642857V7.857143H4.642857ZM5.357143 7.857143H6.357143V8.857142H5.357143V7.857143ZM5.357143 5.357143H4.357143V4.357143H5.357143V5.357143ZM7.857143 5.357143H8.857143V6.357142H7.857143V5.357143ZM4.987867 10.999927C3.405769 10.98073 1.893878 10.343712 .775083 9.224916L2.189297 7.810703C2.938961 8.560368 3.952025 8.98721 5.012133 9.000073L4.987867 10.999927ZM.775083 9.224916C-.343712 8.106122-.98073 6.594231-.999926 5.012133L.999926 4.987867C1.012789 6.047975 1.439632 7.061039 2.189297 7.810703L.775083 9.224916ZM-.999926 4.987867C-.98073 3.405768-.343712 1.893878 .775083 .775084L2.189297 2.189297C1.439632 2.938962 1.012789 3.952025 .999926 5.012133L-.999926 4.987867ZM.775083 .775084C1.893878-.343712 3.405769-.98073 4.987867-.999927L5.012133 .999927C3.952025 1.012789 2.938962 1.439632 2.189297 2.189297L.775083 .775084ZM5.012133-.999927C6.594232-.98073 8.106122-.343711 9.224916 .775084L7.810703 2.189297C7.061038 1.439632 6.047975 1.012789 4.987867 .999927L5.012133-.999927ZM9.224916 .775084C10.343711 1.893878 10.98073 3.405768 10.999927 4.987867L9.000073 5.012133C8.987211 3.952025 8.560368 2.938962 7.810703 2.189297L9.224916 .775084ZM10.999927 5.012133C10.98073 6.594231 10.343712 8.106122 9.224916 9.224916L7.810703 7.810703C8.560368 7.061038 8.987211 6.047975 9.000073 4.987867L10.999927 5.012133ZM9.224916 9.224916C8.106122 10.343712 6.594232 10.98073 5.012133 10.999927L4.987867 9.000073C6.047975 8.98721 7.061038 8.560368 7.810703 7.810703L9.224916 9.224916ZM7.857143 5.642857H5.357143V3.642857H7.857143V5.642857ZM4.357143 4.642857V2.142857H6.357143V4.642857H4.357143ZM5.357143 3.142857H4.642857V1.142857H5.357143V3.142857ZM5.642857 2.142857V4.642857H3.642857V2.142857H5.642857ZM4.642857 5.642857H2.142857V3.642857H4.642857V5.642857ZM3.142857 4.642857V5.357143H1.142857V4.642857H3.142857ZM2.142857 4.357143H4.642857V6.357142H2.142857V4.357143ZM5.642857 5.357143V7.857143H3.642857V5.357143H5.642857ZM4.642857 6.857143H5.357143V8.857142H4.642857V6.857143ZM4.357143 7.857143V5.357143H6.357143V7.857143H4.357143ZM5.357143 4.357143H7.857143V6.357142H5.357143V4.357143ZM6.857143 5.357143V4.642857H8.857143V5.357143H6.857143Z" fill="#3387e0"/>
</g>
</svg>