<svg width="16" height="10" viewBox="0 0 16 10" fill="none" xmlns="http://www.w3.org/2000/svg">
<path d="M15.0639 4.72222C13.4725 1.78028 10.6817 0 7.59333 0C4.505 0 1.70944 1.78028 0.132222 4.72222L0 4.94417L0.122778 5.17083C1.71417 8.11278 4.505 9.89305 7.59333 9.89305C10.6817 9.89305 13.4772 8.13639 15.0639 5.17083L15.1867 4.94417L15.0639 4.72222ZM7.59333 8.925C4.93472 8.925 2.49333 7.44222 1.07667 4.94417C2.49333 2.44611 4.93472 0.963333 7.59333 0.963333C10.2519 0.963333 12.665 2.45083 14.1053 4.94417C12.665 7.44222 10.2472 8.925 7.59333 8.925Z" fill="#333333"/>
<path d="M7.72968 8.19764C9.51877 8.19764 10.9691 6.74729 10.9691 4.95819C10.9691 3.1691 9.51877 1.71875 7.72968 1.71875C5.94058 1.71875 4.49023 3.1691 4.49023 4.95819C4.49023 6.74729 5.94058 8.19764 7.72968 8.19764Z" fill="#333333"/>
</svg>
